<svg xmlns="http://www.w3.org/2000/svg" xmlns:xlink="http://www.w3.org/1999/xlink" id="Capa_1" data-name="Capa 1" viewBox="0 0 126.23 51.29"><defs><style>.cls-1{fill:none;}.cls-2{clip-path:url(#clip-path);}.cls-3{fill:#fff;}.cls-4{fill:#00953b;}.cls-5{isolation:isolate;}</style><clipPath id="clip-path" transform="translate(0 0)"><rect class="cls-1" width="126.23" height="47.75"></rect></clipPath></defs><g class="cls-2"><rect class="cls-1" width="126.23" height="51.28"></rect><path class="cls-3" d="M32,12.24c-.61,0-1.23,0-1.86,0,0-.14,0-.24,0-.35,0-1.53,0-3.06,0-4.59a1,1,0,0,1,.13-.51,5.45,5.45,0,0,0,.83-3.54,17,17,0,0,1,0-2.26,1,1,0,0,0-.51-1H22.89a1,1,0,0,0-.5,1c0,.51,0,1,0,1.55H20.76c0-.53,0-1,0-1.54a1,1,0,0,0-.5-1H12.69a1,1,0,0,0-.5,1c0,.5,0,1,0,1.54H10.57c0-.52,0-1,0-1.55a1,1,0,0,0-.51-1H2.42a1,1,0,0,0-.51,1c0,1.26,0,2.53,0,3.79a1.21,1.21,0,0,0,.15.64A5.44,5.44,0,0,1,2.89,8.9c-.07,1,0,2,0,3v.38c-.64,0-1.26,0-1.87,0a1,1,0,0,0-1,.51V41.5a1.15,1.15,0,0,0,.72.57L16,47.61c.1,0,.21.1.31.14h.44c.5-.2,1-.4,1.5-.58l14-5.1A1.2,1.2,0,0,0,33,41.5V12.75a1,1,0,0,0-1-.51m.32,29.13L16.47,47.12.68,41.37V12.93H3.55V6.8L2.6,4.89V.63H9.82V3.24h3.09V.63h7.14V3.24h3.08V.63h7.23V4.89l-.95,1.9v6.13h2.87Z" transform="translate(0 0)"></path><path class="cls-3" d="M4.94,6.61H28V6.56L29,4.79V2H24.52v2.6H18.63V2H14.32v2.6H8.43V2H4V4.79l1,1.78Z" transform="translate(0 0)"></path><path class="cls-3" d="M2.26,40.27l14.21,5.17L30.7,40.27V14.5H2.26Zm26.43,0H7.1L28.69,17.14ZM27.92,16.8,6,40.32H5.2L27.08,16.8Zm-23.47,0H26L15.86,27.7l-4.37-6.33L9.94,19.12H8.22V30.43H10V29h4.72L4.45,40ZM13,27.15H10V22.63l1.5,2.26Z" transform="translate(0 0)"></path><path class="cls-3" d="M9.56,39.25h18V19.72l-7.66,8.33h.33l3.45,5v-5h2.23v9.57H24l-4.48-6.53v6.53h-2.2V30.8Z" transform="translate(0 0)"></path><path class="cls-3" d="M28,7.35h-23V8.6H28Z" transform="translate(0 0)"></path><path class="cls-3" d="M4.94,11.91v.91H8.2v-.91Z" transform="translate(0 0)"></path><path class="cls-3" d="M8.2,9.5H4.94v.92H8.2Z" transform="translate(0 0)"></path><rect class="cls-3" x="8.25" y="10.69" width="3.26" height="0.91"></rect><path class="cls-3" d="M14.76,12.81v-.9H11.5v.91h3.26Z" transform="translate(0 0)"></path><rect class="cls-3" x="11.51" y="9.5" width="3.26" height="0.91"></rect><rect class="cls-3" x="14.81" y="10.69" width="3.26" height="0.91"></rect><path class="cls-3" d="M18.11,12.81h3.26v-.91H18.11Z" transform="translate(0 0)"></path><rect class="cls-3" x="18.11" y="9.5" width="3.26" height="0.91"></rect><rect class="cls-3" x="21.42" y="10.69" width="3.26" height="0.91"></rect><path class="cls-3" d="M27.94,12.81v-.9H24.68v.91h3.26Z" transform="translate(0 0)"></path><rect class="cls-3" x="24.68" y="9.5" width="3.26" height="0.91"></rect><path class="cls-4" d="M29.41,12.92V6.8l.95-1.9V.63H23.13V3.24H20.05V.63H12.91V3.24H9.82V.63H2.6V4.89l.95,1.9v6.13H.68V41.37l15.79,5.75,15.81-5.75V12.92ZM4,2H8.44v2.6h5.88V2h4.32v2.6h5.89V2H29V4.78L28,6.56v.05H4.94V6.56L4,4.78Zm1,9.88H8.2v.91H4.94v-.91Zm0-1.5V9.5H8.2v.91H5Zm6.57,1.18H8.25v-.91h3.26Zm0-2.09h3.26v.91H11.52Zm0,3.31v-.9h3.26v.91H11.52Zm3.3-2.13h3.26v.91H14.81Zm3.3,2.13v-.9h3.26v.91H18.12Zm0-3.31h3.26v.91H18.11Zm6.57,2.09H21.42v-.91h3.26Zm0-2.09H28v.91H24.69Zm0,3.31v-.9H28v.91H24.69ZM28,8.6h-23V7.35H28Zm2.74,31.67L16.47,45.44,2.26,40.27V14.5H30.7Z" transform="translate(0 0)"></path><path class="cls-4" d="M10,22.63v4.52h3l-1.5-2.26Z" transform="translate(0 0)"></path><path class="cls-4" d="M11.49,29H10v1.46H8.22V19.12H9.94l1.55,2.25,4.37,6.33L26,16.78H4.45V40L14.68,29Z" transform="translate(0 0)"></path><path class="cls-4" d="M28.69,40.31V17.14L7.1,40.31Zm-9.15-2.69V31.09L24,37.62h1.87V28.05H23.66v5l-3.46-5h-.33l7.67-8.32V39.25h-18l7.78-8.45v6.82Z" transform="translate(0 0)"></path><path class="cls-4" d="M6,40.32,27.91,16.8h-.83L5.2,40.32Z" transform="translate(0 0)"></path><path class="cls-3" d="M42.56,47.75h-3V0h3Z" transform="translate(0 0)"></path><g class="cls-5"><path class="cls-3" d="M51.48,18.12l-.57,3H49.4l2.82-14.7h2.37l2.81,14.7H55.76l-.56-3Zm.21-1.41H55L53.31,8.23Z" transform="translate(0 0)"></path><path class="cls-3" d="M60.83,21.08V7.88H58.12V6.38h7.05v1.5H62.46v13.2Z" transform="translate(0 0)"></path><path class="cls-3" d="M66.31,21.08V6.38h1.63V19.59h4.2v1.49Z" transform="translate(0 0)"></path><path class="cls-3" d="M78.61,12.89v1.47H75v5.23h4.41v1.49H73.38V6.38h6.05v1.5H75v5ZM78.49,3.4l-2,2.17H75.4L76.87,3.4Z" transform="translate(0 0)"></path><path class="cls-3" d="M83.08,21.08V7.88h-2.7V6.38h7.05v1.5H84.72v13.2Z" transform="translate(0 0)"></path><path class="cls-3" d="M90.2,6.38v14.7H88.57V6.38Z" transform="translate(0 0)"></path><path class="cls-3" d="M98.37,9.93v1.33H96.82V9.85c0-1.32-.53-2.12-1.72-2.12s-1.72.8-1.72,2.12v7.77c0,1.32.54,2.12,1.72,2.12s1.72-.8,1.72-2.12V15.71h1.55v1.82c0,2.23-1.05,3.7-3.32,3.7s-3.29-1.47-3.29-3.7V9.93c0-2.22,1-3.69,3.29-3.69S98.37,7.71,98.37,9.93Z" transform="translate(0 0)"></path><path class="cls-3" d="M99.74,9.93c0-2.24,1.11-3.69,3.36-3.69s3.38,1.45,3.38,3.69v7.6c0,2.23-1.12,3.7-3.38,3.7s-3.36-1.47-3.36-3.7Zm1.61,7.69c0,1.34.57,2.12,1.75,2.12s1.74-.78,1.74-2.12V9.85c0-1.32-.55-2.12-1.74-2.12s-1.75.8-1.75,2.12Z" transform="translate(0 0)"></path></g><g class="cls-5"><path class="cls-3" d="M52.57,32.59V45.77H50V27.57h3.58l2.94,10.9V27.57h2.55v18.2H56.13Z" transform="translate(0 0)"></path><path class="cls-3" d="M70.38,45.77H67.49L67,42.47H63.49L63,45.77H60.37l2.91-18.2h4.19ZM63.85,40h2.76l-1.38-9.2Z" transform="translate(0 0)"></path><path class="cls-3" d="M80,39v2.42C80,44.32,78.54,46,75.74,46s-4.27-1.66-4.27-4.57V31.94c0-2.91,1.46-4.57,4.27-4.57S80,29,80,31.94v1.77H77.3V31.76c0-1.3-.58-1.79-1.49-1.79s-1.48.49-1.48,1.79v9.83c0,1.3.57,1.77,1.48,1.77s1.49-.47,1.49-1.77V39Z" transform="translate(0 0)"></path><path class="cls-3" d="M81.74,27.57H84.6v18.2H81.74Z" transform="translate(0 0)"></path><path class="cls-3" d="M86.45,31.94c0-2.91,1.53-4.57,4.34-4.57s4.34,1.66,4.34,4.57v9.47c0,2.91-1.53,4.57-4.34,4.57s-4.34-1.66-4.34-4.57Zm2.86,9.65c0,1.3.57,1.79,1.48,1.79s1.48-.49,1.48-1.79V31.76c0-1.3-.57-1.79-1.48-1.79s-1.48.49-1.48,1.79Z" transform="translate(0 0)"></path><path class="cls-3" d="M99.53,32.59V45.77H97V27.57h3.59l2.94,10.9V27.57H106v18.2h-2.94Z" transform="translate(0 0)"></path><path class="cls-3" d="M117.33,45.77h-2.88l-.49-3.3h-3.51l-.5,3.3h-2.62l2.91-18.2h4.18ZM110.81,40h2.76l-1.38-9.2Z" transform="translate(0 0)"></path><path class="cls-3" d="M118.66,27.57h2.86v15.6h4.71v2.6h-7.57Z" transform="translate(0 0)"></path></g></g></svg>