<svg xmlns="http://www.w3.org/2000/svg" xmlns:xlink="http://www.w3.org/1999/xlink" width="174" height="100" viewBox="0 0 174 100"><defs><clipPath id="clip-path"><rect id="Rect&#xE1;ngulo_2138" data-name="Rect&#xE1;ngulo 2138" width="174" height="100" transform="translate(0)" fill="none" stroke="#707070" stroke-width="1"></rect></clipPath></defs><g id="Logo-Postobon" clip-path="url(#clip-path)"><g id="Grupo_5383" data-name="Grupo 5383" transform="translate(14.35 13.228)"><path id="Trazado_22051" data-name="Trazado 22051" d="M29.706,24.877a10.965,10.965,0,0,0-3.075-3.187,6.515,6.515,0,0,0-7.455,0A10.95,10.95,0,0,0,16.1,24.877a17.151,17.151,0,0,0-2.084,4.706,22.006,22.006,0,0,0,0,11.536A17.167,17.167,0,0,0,16.1,45.825a10.929,10.929,0,0,0,3.075,3.185,6.51,6.51,0,0,0,7.455,0,10.945,10.945,0,0,0,3.075-3.185,16.942,16.942,0,0,0,2.073-4.706,22.342,22.342,0,0,0,0-11.536,16.926,16.926,0,0,0-2.073-4.706m-2.116,13.7a10.242,10.242,0,0,1-1.029,2.679,6.1,6.1,0,0,1-1.618,1.882,3.572,3.572,0,0,1-4.391,0,6.231,6.231,0,0,1-1.625-1.876,9.982,9.982,0,0,1-1.042-2.684,14.267,14.267,0,0,1,0-6.454,9.973,9.973,0,0,1,1.042-2.683,6.189,6.189,0,0,1,1.625-1.877,3.586,3.586,0,0,1,2.186-.754,3.623,3.623,0,0,1,2.205.753,6.1,6.1,0,0,1,1.618,1.883,10.25,10.25,0,0,1,1.029,2.678,14.262,14.262,0,0,1,0,6.452" transform="translate(2.602 0.871)" fill="#fff"></path><path id="Trazado_22052" data-name="Trazado 22052" d="M1.071,20.862A1.212,1.212,0,0,0,0,22.08V53.135a1.223,1.223,0,0,0,1.211,1.235l2.808-.731A1.223,1.223,0,0,0,5.23,52.4V42.194c8.627-.765,11.117-10.942,8.455-16.86-2.276-5.06-9.8-4.771-12.614-4.472M5.23,37.219V25.534c1.531.115,3.3.6,4.008,2.127,1.28,2.753.1,9.162-4.008,9.557" transform="translate(0 0.916)" fill="#fff"></path><path id="Trazado_22053" data-name="Trazado 22053" d="M43.361,34.506a15.785,15.785,0,0,0-3.54-2.32l-.526-.266c-.8-.405-1.634-.824-2.412-1.3a4.677,4.677,0,0,1-1.244-1.159,2.511,2.511,0,0,1-.488-2.038,2.349,2.349,0,0,1,1.237-1.6,2.9,2.9,0,0,1,2.079-.227,10.862,10.862,0,0,1,3.567,1.8,1.16,1.16,0,0,0,1.738-.36c.408-.638.833-1.33,1.3-2.2a1.35,1.35,0,0,0-.343-1.745,13.189,13.189,0,0,0-1.373-.954,9.871,9.871,0,0,0-8.6-1.03c-3.27,1.172-5.131,4.639-4.53,8.431a8,8,0,0,0,3.127,5.127,17.883,17.883,0,0,0,3.4,2l.659.326a7.013,7.013,0,0,1,2.619,1.984,2.907,2.907,0,0,1,.525,2.487,2.529,2.529,0,0,1-1.579,1.728,3.23,3.23,0,0,1-2.6-.137,29.2,29.2,0,0,1-3.09-1.773A1.361,1.361,0,0,0,32.12,41a1.412,1.412,0,0,0-.853.835l-.736,1.423c-.72,1.3-.459,1.738.449,2.547a10.36,10.36,0,0,0,7.01,2.553h.08a7.919,7.919,0,0,0,3.328-.67,7.422,7.422,0,0,0,4.558-6.12,7.736,7.736,0,0,0-2.6-7.066" transform="translate(5.915 0.875)" fill="#fff"></path><path id="Trazado_22054" data-name="Trazado 22054" d="M122.312,20.954H119.5a1.223,1.223,0,0,0-1.211,1.235V38.954l-6.069-16.987a1.229,1.229,0,0,0-.516-.8,1.008,1.008,0,0,0-.184-.1,1.186,1.186,0,0,0-.488-.106h-2.808a1.223,1.223,0,0,0-1.211,1.235V44.428l-.167,5.626a1.251,1.251,0,0,0,1.211,1.234l2.808.4a1.223,1.223,0,0,0,1.211-1.235l.167-6.02V35.873l6.107,16.93a.576.576,0,0,0,.171.251,1.694,1.694,0,0,0,.977.56l2.81.727c.621.127,1.211-.553,1.211-1.235V22.189a1.223,1.223,0,0,0-1.211-1.235" transform="translate(20.987 0.968)" fill="#fff"></path><path id="Trazado_22055" data-name="Trazado 22055" d="M58.89,21.85a.888.888,0,0,0-.878-.9H45a.888.888,0,0,0-.878.9v3.573a.888.888,0,0,0,.878.9H48.89V45.647A1.223,1.223,0,0,0,50.1,46.882l2.808-.07a1.223,1.223,0,0,0,1.211-1.235V26.319h3.892a.888.888,0,0,0,.878-.9Z" transform="translate(8.666 0.968)" fill="#fff"></path><path id="Trazado_22056" data-name="Trazado 22056" d="M87.877,34.285a5.587,5.587,0,0,0-.864-.48,2.424,2.424,0,0,1-.418-.237q.248-.178.494-.345c.357-.245.694-.478,1.012-.743A6.446,6.446,0,0,0,90.493,29a5.8,5.8,0,0,0-1.863-5.782A8.026,8.026,0,0,0,82.867,21H75.11a1.216,1.216,0,0,0-1.22,1.245V45.781a1.222,1.222,0,0,0,1.22,1.244s8.846.514,9.433.444c7.181-1.173,7.506-9.248,5.291-11.614a19.208,19.208,0,0,0-1.956-1.571m-8.764-8.91.1-.021a.868.868,0,0,1,.2-.032l1.822-.01c.412,0,.822,0,1.232.015A2.883,2.883,0,0,1,85.4,28.273a3.026,3.026,0,0,1-2.929,3.107c-.42.013-.84.017-1.263.017-.339,0-.678,0-1.023,0s-.706-.006-1.085-.027Zm6.917,14.9c-.233,1.264-1.5,2.84-2.919,2.761-.5-.028-3.547-.183-4.014-.2l.017-6.881s2.906.192,3.337.2a3.559,3.559,0,0,1,2.4.986,3.342,3.342,0,0,1,1.184,3.14" transform="translate(14.514 0.977)" fill="#fff"></path><path id="Trazado_22057" data-name="Trazado 22057" d="M72.716,24.461a10.44,10.44,0,0,0-3.075-2.881,7.081,7.081,0,0,0-7.455,0,10.44,10.44,0,0,0-3.075,2.881,14.827,14.827,0,0,0-2.084,4.256,18.068,18.068,0,0,0,0,10.432A14.811,14.811,0,0,0,59.111,43.4a10.408,10.408,0,0,0,3.075,2.881,7.081,7.081,0,0,0,7.455,0A10.408,10.408,0,0,0,72.716,43.4a14.612,14.612,0,0,0,2.073-4.256,18.342,18.342,0,0,0,0-10.432,14.627,14.627,0,0,0-2.073-4.256M70.595,36.886a8.8,8.8,0,0,1-1.042,2.453,5.753,5.753,0,0,1-1.628,1.716,3.811,3.811,0,0,1-4.332,0,5.875,5.875,0,0,1-1.636-1.711A8.661,8.661,0,0,1,60.9,36.887a11.843,11.843,0,0,1,0-5.909,8.652,8.652,0,0,1,1.055-2.457,5.875,5.875,0,0,1,1.636-1.711,3.811,3.811,0,0,1,4.332,0,5.761,5.761,0,0,1,1.63,1.717,8.855,8.855,0,0,1,1.042,2.452,11.839,11.839,0,0,1,0,5.908" transform="translate(11.05 0.871)" fill="#fff"></path><path id="Trazado_22058" data-name="Trazado 22058" d="M105.54,25.263a10.46,10.46,0,0,0-3.075-2.883,7.087,7.087,0,0,0-7.455,0,10.476,10.476,0,0,0-3.075,2.883,14.827,14.827,0,0,0-2.084,4.256,18.068,18.068,0,0,0,0,10.432,14.811,14.811,0,0,0,2.084,4.256,10.423,10.423,0,0,0,3.075,2.881,7.08,7.08,0,0,0,7.455,0,10.408,10.408,0,0,0,3.075-2.881,14.611,14.611,0,0,0,2.073-4.256,18.342,18.342,0,0,0,0-10.432,14.626,14.626,0,0,0-2.073-4.256m-2.121,12.425a8.8,8.8,0,0,1-1.042,2.453,5.753,5.753,0,0,1-1.628,1.716,3.811,3.811,0,0,1-4.332,0,5.874,5.874,0,0,1-1.635-1.711,8.662,8.662,0,0,1-1.056-2.458,11.844,11.844,0,0,1,0-5.909,8.675,8.675,0,0,1,1.055-2.458,5.885,5.885,0,0,1,1.635-1.71,3.793,3.793,0,0,1,2.156-.676,3.832,3.832,0,0,1,2.177.675,5.773,5.773,0,0,1,1.628,1.717,8.854,8.854,0,0,1,1.042,2.452,11.839,11.839,0,0,1,0,5.908" transform="translate(17.497 1.048)" fill="#fff"></path><path id="Trazado_22059" data-name="Trazado 22059" d="M93.355,48.936a2.544,2.544,0,0,0-3.616.481c-5.285,7-14.294,11.187-24.1,11.187s-18.814-4.182-24.1-11.187a2.544,2.544,0,0,0-3.616-.481,2.664,2.664,0,0,0-.471,3.688c6.254,8.29,16.791,13.239,28.185,13.239s21.932-4.949,28.185-13.239a2.667,2.667,0,0,0-.471-3.688" transform="translate(7.252 7.015)" fill="#fff"></path><path id="Trazado_22060" data-name="Trazado 22060" d="M98.941,4.576A1.58,1.58,0,0,1,99.4,3.45a1.54,1.54,0,0,1,.513-.336,1.825,1.825,0,0,1,1.312,0,1.52,1.52,0,0,1,.854.84,1.663,1.663,0,0,1,0,1.245,1.52,1.52,0,0,1-.854.84,1.843,1.843,0,0,1-1.312,0A1.54,1.54,0,0,1,99.4,5.7a1.564,1.564,0,0,1-.335-.5,1.58,1.58,0,0,1-.121-.622m.8,0a.805.805,0,0,0,.066.33.838.838,0,0,0,.179.264.821.821,0,0,0,.263.173.86.86,0,0,0,.637,0,.84.84,0,0,0,.264-.173.812.812,0,0,0,.248-.593.807.807,0,0,0-.248-.593.824.824,0,0,0-.583-.234.849.849,0,0,0-.318.061.821.821,0,0,0-.263.173.846.846,0,0,0-.179.262.815.815,0,0,0-.066.331" transform="translate(19.434 -2.992)" fill="#fff"></path><path id="Trazado_22061" data-name="Trazado 22061" d="M92.761,11.354A3.212,3.212,0,0,1,93,10.1a3.115,3.115,0,0,1,.674-1.011,3.077,3.077,0,0,1,1.03-.676,3.7,3.7,0,0,1,2.637,0A3.065,3.065,0,0,1,99.06,10.1a3.343,3.343,0,0,1,0,2.5,3.065,3.065,0,0,1-1.716,1.687,3.7,3.7,0,0,1-2.637,0A3.064,3.064,0,0,1,93,12.605a3.212,3.212,0,0,1-.243-1.251" transform="translate(18.22 -1.85)" fill="#fff"></path><path id="Trazado_22062" data-name="Trazado 22062" d="M104.2,22.779a4.544,4.544,0,1,1,4.537-4.5,4.375,4.375,0,0,1-4.537,4.5m0-2.02a2.369,2.369,0,0,0,2.332-2.507,2.341,2.341,0,1,0-4.667-.022,2.411,2.411,0,0,0,2.335,2.529" transform="translate(19.575 -0.634)" fill="#fff"></path><path id="Trazado_22063" data-name="Trazado 22063" d="M35.167,5.768a2.546,2.546,0,0,0-2.53-2.562h-.026A2.535,2.535,0,0,0,30.2,5.1l0,0L28.26,13.009h-.085L26.21,5.056,26.2,5.045a2.4,2.4,0,0,0-4.737.594V17.568a.853.853,0,0,0,.847.858h1.381a.858.858,0,0,0,.853-.858l-.105-8.962H24.5l2.278,9.114a.851.851,0,0,0,.834.705h1.071a.848.848,0,0,0,.833-.707h0l2.358-9.112h.085l-.128,8.962,0,0a.851.851,0,0,0,.847.854H34.32a.853.853,0,0,0,.847-.858V5.79h0V5.768" transform="translate(4.215 -2.945)" fill="#fff"></path><path id="Trazado_22064" data-name="Trazado 22064" d="M44.933,17.385h0L42.069,5.249l0,0A2.712,2.712,0,0,0,36.8,5.1l0,0-.034.138c-.007.032-.016.062-.022.1L33.88,17.38l0,0a.947.947,0,0,0-.024.2.856.856,0,0,0,.847.864h1.64a.852.852,0,0,0,.832-.7l0,0,.461-2.093h3.38l.463,2.1,0,.017,0,.016h0a.85.85,0,0,0,.823.661h1.795a.856.856,0,0,0,.848-.864.927.927,0,0,0-.024-.2m-6.909-4.419L39.3,7.073h.085L40.6,12.966Z" transform="translate(6.65 -2.968)" fill="#fff"></path><path id="Trazado_22065" data-name="Trazado 22065" d="M91.949,17.385h0L89.085,5.249l0,0A2.712,2.712,0,0,0,83.814,5.1l0,0-.033.138c-.007.032-.016.062-.022.1L80.9,17.38l0,0a.947.947,0,0,0-.024.2.856.856,0,0,0,.847.864h1.64a.852.852,0,0,0,.832-.7l0,0,.461-2.093h3.38l.463,2.1,0,.017,0,.016h0a.851.851,0,0,0,.823.661h1.795a.857.857,0,0,0,.848-.864.926.926,0,0,0-.024-.2M85.04,12.966l1.275-5.892H86.4l1.211,5.892Z" transform="translate(15.885 -2.968)" fill="#fff"></path><path id="Trazado_22066" data-name="Trazado 22066" d="M72.684,17.385h0L69.82,5.249l0,0A2.712,2.712,0,0,0,64.549,5.1l0,0-.034.138c-.007.032-.016.062-.022.1L61.631,17.38l0,0a.947.947,0,0,0-.024.2.856.856,0,0,0,.847.864H64.1a.852.852,0,0,0,.832-.7l0,0,.461-2.093h3.38l.463,2.1,0,.017,0,.016h0a.85.85,0,0,0,.823.661H71.86a.857.857,0,0,0,.848-.864.927.927,0,0,0-.024-.2m-6.909-4.419L67.05,7.073h.085l1.211,5.892Z" transform="translate(12.102 -2.968)" fill="#fff"></path><path id="Trazado_22067" data-name="Trazado 22067" d="M54.2,4.074a.862.862,0,0,0-.835-.868H52.113a.862.862,0,0,0-.845.862l-.006.006h.006v.007l.059,8.519h-.065l-2.94-7.968c-.008-.022-.016-.044-.024-.065v0h0a2.207,2.207,0,0,0-4.243.877v12.13a.853.853,0,0,0,.848.857H46.24a.851.851,0,0,0,.847-.852l0,0L47.01,9.161h.063l2.937,7.8h0a2.147,2.147,0,0,0,4.181-.714v-.017h0Z" transform="translate(8.653 -2.945)" fill="#fff"></path><path id="Trazado_22068" data-name="Trazado 22068" d="M82.012,4.074a.862.862,0,0,0-.835-.868H79.928a.862.862,0,0,0-.845.862l-.006.006h.006v.007l.059,8.519h-.065l-2.94-7.968c-.008-.022-.016-.044-.024-.065v0h0a2.207,2.207,0,0,0-4.243.877v12.13a.853.853,0,0,0,.848.857h1.338a.851.851,0,0,0,.847-.852l0,0-.081-8.409h.063l2.937,7.8h0a2.147,2.147,0,0,0,4.181-.714v-.017h0Z" transform="translate(14.117 -2.945)" fill="#fff"></path><path id="Trazado_22069" data-name="Trazado 22069" d="M53.8,17.6V15.819a.818.818,0,0,1,.084-.364l4.488-9.218H54.979a.812.812,0,0,1-.8-.82V4.027a.812.812,0,0,1,.8-.82h6.439a.813.813,0,0,1,.805.82V5.749a.851.851,0,0,1-.084.364l-4.467,9.213h3.746a.813.813,0,0,1,.805.82V17.6a.813.813,0,0,1-.805.82H54.6a.811.811,0,0,1-.8-.82" transform="translate(10.567 -2.945)" fill="#fff"></path></g></g></svg>